PathFileType	4	(X/Y/Z)	/Users/itak/Documents/Research/Walk-IL/dataset/trc/00359_00011.trc
DataRate	CameraRate	NumFrames	NumMarkers	Units	OrigDataRate	OrigDataStartFrame	OrigNumFrames
100.000000	100.000000	4	60	mm	100.000000	447	596
Frame#	Time	RPSI			LPSI			L3			STRN			T10			C7			CLAV			RBAK			LBAK			LSHO			LUPA			LAEL			LAOL			LWPS			LFRA			LHPS			LHTS			RSHO			RUPA			RAEL			RAOL			RWTS			RFRA			RIFD			RHTS			RBHD			LFHD			RFHD			LBHD			RHIP			RASI			LASI			LKNE			LTHI			LANK			LTIP			LTOE			LMT1			LMT5			LHEE			RKNE			RTHI			RANK			RTIP			RTOE			RMT1			RMT5			LWTS			LIFD			RWPS			LHIP			RHEE			RHPS			*53			*54			*55			*56			*57			*58			*59			
		X1	Y1	Z1	X2	Y2	Z2	X3	Y3	Z3	X4	Y4	Z4	X5	Y5	Z5	X6	Y6	Z6	X7	Y7	Z7	X8	Y8	Z8	X9	Y9	Z9	X10	Y10	Z10	X11	Y11	Z11	X12	Y12	Z12	X13	Y13	Z13	X14	Y14	Z14	X15	Y15	Z15	X16	Y16	Z16	X17	Y17	Z17	X18	Y18	Z18	X19	Y19	Z19	X20	Y20	Z20	X21	Y21	Z21	X22	Y22	Z22	X23	Y23	Z23	X24	Y24	Z24	X25	Y25	Z25	X26	Y26	Z26	X27	Y27	Z27	X28	Y28	Z28	X29	Y29	Z29	X30	Y30	Z30	X31	Y31	Z31	X32	Y32	Z32	X33	Y33	Z33	X34	Y34	Z34	X35	Y35	Z35	X36	Y36	Z36	X37	Y37	Z37	X38	Y38	Z38	X39	Y39	Z39	X40	Y40	Z40	X41	Y41	Z41	X42	Y42	Z42	X43	Y43	Z43	X44	Y44	Z44	X45	Y45	Z45	X46	Y46	Z46	X47	Y47	Z47	X48	Y48	Z48	X49	Y49	Z49	X50	Y50	Z50	X51	Y51	Z51	X52	Y52	Z52	X53	Y53	Z53	X54	Y54	Z54	X55	Y55	Z55	X56	Y56	Z56	X57	Y57	Z57	X58	Y58	Z58	X59	Y59	Z59	X60	Y60	Z60	

448	4.47	621.9331665039062	946.9363403320312	-153.3088684082031	496.4416809082031	943.0452270507812	-121.3997421264648	555.4486083984375	1005.463317871094	-134.0878295898438	494.8320617675781	1199.574462890625	-344.1186218261719	538.538330078125	1121.896728515625	-112.5467910766602	505.7274475097656	1370.535888671875	-134.4178466796875	493.3956298828125	1322.973388671875	-293.6558532714844	582.826904296875	1229.87451171875	-105.8285446166992	407.4728393554688	1328.390502929688	-112.9017639160156	339.1468505859375	1346.5263671875	-189.9272766113281	282.2589721679688	1223.1142578125	-164.4556732177734	276.3551635742188	1020.749328613281	-171.3119659423828	345.4101257324219	1009.825256347656	-121.1710586547852	254.7543334960938	766.6284790039062	-207.7687225341797	267.8662719726562	916.128173828125	-178.8133239746094	261.8448181152344	698.2859497070312	-197.2757415771484	282.7776184082031	694.7290649414062	-257.376708984375	661.9244995117188	1366.137573242188	-211.4000091552734	727.50830078125	1302.755737304688	-209.2936859130859	770.1021118164062	1036.360473632812	-220.8050842285156	687.3947143554688	1027.14111328125	-175.0260162353516	729.05810546875	804.1971435546875	-323.5170593261719	780.6359252929688	970.207275390625	-246.2135772705078	747.1582641601562	629.2012939453125	-324.6963500976562	745.2921752929688	701.6375122070312	-343.7924499511719	571.3084716796875	1579.011840820312	-175.1744537353516	438.0460815429688	1598.582275390625	-334.2933349609375	539.21044921875	1604.833129882812	-332.87109375	429.8663024902344	1563.358154296875	-151.1365966796875	703.4908447265625	905.3349609375	-263.1265563964844	636.178955078125	939.5581665039062	-349.518798828125	399.5003967285156	919.7536010742188	-312.35693359375	357.0725402832031	437.2159423828125	-248.7043609619141	356.9960021972656	572.1891479492188	-243.3300933837891	396.8347778320312	194.8677520751953	102.3973617553711	367.442626953125	296.6313781738281	-71.58148193359375	459.5549011230469	28.20430183410645	-4.572968482971191	498.1732788085938	76.50514984130859	43.34932708740234	384.1338806152344	86.29523468017578	40.5946044921875	464.5691223144531	222.0657196044922	122.589729309082	668.0715942382812	461.6568908691406	-421.0435791015625	693.0799560546875	719.9496459960938	-382.5590209960938	646.7070922851562	38.43424606323242	-417.8886108398438	656.4423217773438	344.8514404296875	-450.115478515625	580.9334716796875	47.1688346862793	-607.0403442382812	542.463134765625	43.04896545410156	-549.3868408203125	654.4922485351562	26.4169750213623	-518.2385864257812	301.1444702148438	771.6276245117188	-259.8771362304688	293.26708984375	609.8836669921875	-247.1089630126953	798.2536010742188	795.3650512695312	-292.0195617675781	374.8325500488281	886.3417358398438	-180.8721008300781	600.9221801757812	42.65166473388672	-365.8058166503906	799.0587158203125	710.7749633789062	-300.4504089355469	nan	nan	nan	nan	nan	nan	nan	nan	nan	nan	nan	nan	nan	nan	nan	nan	nan	nan	nan	nan	nan	
449	4.48	624.7811279296875	948.4754028320312	-160.7351989746094	499.4161987304688	944.271728515625	-127.8744735717773	558.5526733398438	1007.331115722656	-141.1981658935547	496.3719787597656	1201.307006835938	-351.0597839355469	541.781494140625	1123.843627929688	-119.8807373046875	508.6887817382812	1372.352783203125	-141.6367340087891	495.2334899902344	1324.728637695312	-300.7042236328125	586.1995849609375	1231.774047851562	-113.4905624389648	410.6400146484375	1330.265625	-119.3907165527344	341.6676330566406	1348.320922851562	-195.9950714111328	285.0965881347656	1224.95556640625	-169.8632354736328	279.3711547851562	1022.555969238281	-175.5762329101562	349.1104736328125	1011.922241210938	-126.2750625610352	257.3404846191406	767.9443969726562	-207.9419250488281	270.9729919433594	918.0032348632812	-181.6647796630859	264.6847229003906	699.85693359375	-195.8984222412109	284.7944030761719	694.9047241210938	-256.2192993164062	664.3455200195312	1368.020629882812	-219.701416015625	730.029296875	1304.685424804688	-218.1722106933594	773.4307861328125	1038.549438476562	-232.0886077880859	691.3855590820312	1028.643920898438	-185.1797180175781	730.633056640625	807.6336669921875	-336.9283142089844	783.6145629882812	972.5250244140625	-258.2806701660156	748.783203125	632.9815063476562	-341.7676391601562	746.7807006835938	705.8917846679688	-359.5760192871094	573.7273559570312	1580.800537109375	-182.5011749267578	439.8322143554688	1600.425170898438	-341.0868835449219	540.9964599609375	1606.7060546875	-340.0611267089844	432.4397583007812	1565.101684570312	-157.8970184326172	705.2730712890625	906.9083251953125	-270.5855407714844	637.9749145507812	940.8582153320312	-357.1134033203125	401.3320617675781	921.8064575195312	-318.5880432128906	357.4915771484375	439.1977844238281	-263.4908142089844	358.0209655761719	573.8200073242188	-255.7498931884766	399.1815185546875	200.7544708251953	90.17206573486328	368.4717102050781	300.1568603515625	-85.15333557128906	457.2011413574219	29.8333625793457	-16.74621200561523	497.2477722167969	79.83144378662109	30.2692813873291	383.7948608398438	91.81613159179688	29.50486373901367	467.5834045410156	226.8861236572266	109.2344589233398	668.9935913085938	461.5145874023438	-423.677490234375	694.3195190429688	720.236328125	-388.4561767578125	646.760498046875	38.40278625488281	-417.9020080566406	657.1094360351562	344.5277404785156	-451.9667358398438	580.6423950195312	46.63573837280273	-607.165283203125	542.3350830078125	42.90434646606445	-549.396728515625	654.4153442382812	26.42449760437012	-518.2855224609375	302.9591674804688	771.8665161132812	-260.7878112792969	295.3029174804688	610.436767578125	-244.1853637695312	800.3012084960938	798.1956176757812	-306.6264343261719	377.6077575683594	887.81103515625	-186.9023742675781	601.061279296875	42.74004364013672	-365.8306579589844	800.93603515625	713.841796875	-316.5838012695312	nan	nan	nan	nan	nan	nan	nan	nan	nan	nan	nan	nan	nan	nan	nan	nan	nan	nan	nan	nan	nan	
450	4.49	627.482177734375	949.976318359375	-167.8833160400391	502.2506103515625	945.599609375	-134.1566772460938	561.6079711914062	1009.213317871094	-148.0564270019531	497.7669677734375	1203.052368164062	-357.7972412109375	544.98291015625	1125.784545898438	-127.0304794311523	511.5924682617188	1374.149536132812	-148.6691131591797	496.9686584472656	1326.483154296875	-307.5368957519531	589.5759887695312	1233.7001953125	-120.8349609375	413.8030090332031	1332.135009765625	-125.6518478393555	344.132080078125	1350.094482421875	-201.7863922119141	287.8882751464844	1226.7998046875	-174.9562377929688	282.22265625	1024.36572265625	-179.7333221435547	352.5533447265625	1013.975646972656	-131.1719512939453	259.9374084472656	769.3458862304688	-208.5175476074219	273.9529418945312	919.906494140625	-184.6014556884766	267.58837890625	701.5043334960938	-195.1186065673828	287.0064697265625	695.3677978515625	-255.5755920410156	666.6904296875	1369.876831054688	-227.8341217041016	732.4593505859375	1306.591430664062	-226.8830718994141	776.697021484375	1040.755615234375	-243.1833648681641	695.3460693359375	1030.103881835938	-195.2608337402344	732.2233276367188	811.2265014648438	-350.2850036621094	786.5748901367188	974.9102172851562	-270.1942749023438	750.3728637695312	637.0845947265625	-359.2569580078125	748.2684936523438	710.3651123046875	-375.5161437988281	576.0776977539062	1582.570678710938	-189.6674194335938	441.5748901367188	1602.25634765625	-347.7273559570312	542.7291259765625	1608.542724609375	-347.0940856933594	434.9413452148438	1566.863525390625	-164.4988403320312	706.9761352539062	908.31494140625	-277.6458435058594	639.7174072265625	942.0369262695312	-364.4001159667969	403.0840759277344	923.948974609375	-324.6384887695312	357.9188537597656	441.5053405761719	-277.7751770019531	358.9944458007812	575.6842041015625	-267.752197265625	401.776611328125	205.5040130615234	77.72415161132812	369.5415344238281	303.4938659667969	-98.62303924560547	454.5444641113281	32.16227722167969	-30.57612419128418	496.2581787109375	82.56014251708984	15.8057804107666	383.41748046875	96.9078369140625	17.33051490783691	470.8837585449219	230.4538879394531	95.54721832275391	669.7340698242188	461.3908081054688	-425.9044799804688	695.4007568359375	720.4406127929688	-394.0376586914062	646.7606811523438	38.41015243530273	-417.9159240722656	657.7542724609375	344.2069091796875	-453.4881896972656	580.2846069335938	46.09991836547852	-607.313720703125	542.1373291015625	42.70400619506836	-549.42333984375	654.2872924804688	26.45331382751465	-518.33056640625	304.8948059082031	772.3698120117188	-261.9428100585938	297.4916076660156	611.3411865234375	-242.0736389160156	802.2996215820312	801.1082763671875	-321.1119995117188	380.2262573242188	889.4902954101562	-192.7388305664062	601.1189575195312	42.83124160766602	-365.8536071777344	802.7357177734375	717.061767578125	-332.7875061035156	nan	nan	nan	nan	nan	nan	nan	nan	nan	nan	nan	nan	nan	nan	nan	nan	nan	nan	nan	nan	nan	
451	4.5	629.9742431640625	951.4518432617188	-174.7420196533203	504.8672485351562	947.0581665039062	-140.2940368652344	564.5582275390625	1011.067260742188	-154.7204742431641	499.0447998046875	1204.813598632812	-364.3435974121094	548.1138916015625	1127.685913085938	-133.9889678955078	514.4398193359375	1375.913818359375	-155.5117950439453	498.6195068359375	1328.239013671875	-314.1549377441406	592.9456176757812	1235.641845703125	-127.8738632202148	416.9548645019531	1333.986083984375	-131.6965026855469	346.5620727539062	1351.855102539062	-207.3163146972656	290.6275024414062	1228.659790039062	-179.7610168457031	284.937255859375	1026.18701171875	-183.7623748779297	355.777099609375	1016.015441894531	-135.8551635742188	262.5448913574219	770.82470703125	-209.5005493164062	276.8266906738281	921.8355712890625	-187.6183471679688	270.5308532714844	703.2021484375	-194.9623565673828	289.3890686035156	696.1016235351562	-255.4921264648438	668.96044921875	1371.711669921875	-235.7769317626953	734.8040771484375	1308.486083984375	-235.418701171875	779.8759765625	1042.983520507812	-254.0999603271484	699.2471313476562	1031.534545898438	-205.2751159667969	733.8225708007812	814.9662475585938	-363.5754699707031	789.4903564453125	977.3658447265625	-281.9581298828125	751.890380859375	641.4568481445312	-376.9937438964844	749.7037353515625	715.00927734375	-391.4820861816406	578.3606567382812	1584.311645507812	-196.6742095947266	443.2691345214844	1604.05810546875	-354.2124328613281	544.4078369140625	1610.330810546875	-353.9679565429688	437.3713684082031	1568.622924804688	-170.9431610107422	708.6222534179688	909.5520629882812	-284.2805786132812	641.42333984375	943.079833984375	-371.3233032226562	404.7984313964844	926.1644897460938	-330.5597839355469	358.3337097167969	444.1017761230469	-291.4966430664062	359.9144287109375	577.7484741210938	-279.2863159179688	404.4909362792969	209.0594024658203	65.01110076904297	370.6249694824219	306.5874938964844	-111.9568023681641	451.7512512207031	34.92914581298828	-45.86494445800781	495.2843933105469	84.66268157958984	0.1761437952518463	383.0672912597656	101.3932418823242	4.15386438369751	474.307861328125	232.7715148925781	81.55995178222656	670.3407592773438	461.3073425292969	-427.8044738769531	696.3563232421875	720.5733032226562	-399.3420715332031	646.725830078125	38.44791412353516	-417.9369201660156	658.4078979492188	343.9033813476562	-454.753173828125	579.8973388671875	45.56091690063477	-607.4824829101562	541.8883666992188	42.45227813720703	-549.4668579101562	654.1285400390625	26.48745918273926	-518.3722534179688	306.9520568847656	773.125	-263.3689270019531	299.78662109375	612.5445556640625	-240.8172760009766	804.2383422851562	804.111328125	-335.4540405273438	382.6351623535156	891.3814697265625	-198.4716796875	601.1173095703125	42.92962646484375	-365.877685546875	804.46142578125	720.4509887695312	-348.9984741210938	nan	nan	nan	nan	nan	nan	nan	nan	nan	nan	nan	nan	nan	nan	nan	nan	nan	nan	nan	nan	nan	
